<?xml version="1.0" encoding="UTF-8" standalone="no"?>
<!DOCTYPE svg PUBLIC "-//W3C//DTD SVG 1.1//EN" "http://www.w3.org/Graphics/SVG/1.1/DTD/svg11.dtd">
<svg version="1.1" xmlns="http://www.w3.org/2000/svg" xmlns:xlink="http://www.w3.org/1999/xlink" preserveAspectRatio="xMidYMid meet" viewBox="0 0 640 640" width="640" height="640"><defs><path d="M75.13 37.25L105.78 54.91L136.43 37.25L105.78 19.6L75.13 37.25Z" id="b12xVwHQlq"></path><path d="M41.08 56.87L71.73 74.52L102.37 56.87L71.73 39.21L41.08 56.87Z" id="dJwSK1R69"></path><path d="M109.19 56.87L139.83 74.52L170.48 56.87L139.83 39.21L109.19 56.87Z" id="b5tkUBiP6"></path><path d="M143.24 76.48L173.89 94.14L204.54 76.48L173.89 58.83L143.24 76.48Z" id="a1R8or5oQG"></path><path d="M7.03 76.48L37.67 94.14L68.32 76.48L37.67 58.83L7.03 76.48Z" id="f74Rxrrph9"></path><path d="M35.97 210.85L35.97 175.54L5.32 157.89L5.32 193.2L35.97 210.85Z" id="cH7sMwaCQ"></path><path d="M70.03 230.47L70.03 195.16L39.38 177.51L39.38 212.81L70.03 230.47Z" id="aLslut52r"></path><path d="M35.97 171.62L35.97 136.31L5.33 118.66L5.32 153.97L35.97 171.62Z" id="bkvaI5fto"></path><path d="M35.97 132.39L35.97 97.08L5.33 79.43L5.33 114.73L35.97 132.39Z" id="dsZr7srwG"></path><path d="M104.08 250.09L104.08 214.78L73.43 197.12L73.43 232.43L104.08 250.09Z" id="b2iDSt1F2Y"></path><path d="M175.59 210.85L175.59 175.54L206.24 157.89L206.24 193.2L175.59 210.85Z" id="aI6ZgqckZ"></path><path d="M141.54 230.47L141.54 195.16L172.19 177.51L172.19 212.81L141.54 230.47Z" id="d1XJRrfyh"></path><path d="M175.59 171.62L175.59 136.31L206.24 118.66L206.24 153.97L175.59 171.62Z" id="cDFcfpmO6"></path><path d="M175.59 132.39L175.59 97.08L206.24 79.43L206.24 114.73L175.59 132.39Z" id="f3lNU0JUly"></path><path d="M107.49 250.09L107.48 214.78L138.13 197.12L138.13 232.43L107.49 250.09Z" id="aGHtm9xFa"></path><path d="M136.43 194.18L105.78 176.52L75.13 194.18L105.78 211.83L136.43 194.18Z" id="g1Z1mH25MS"></path><path d="M170.48 174.56L139.83 156.91L109.19 174.56L139.83 192.22L170.48 174.56Z" id="b4KfO5uiuq"></path><path d="M102.38 174.56L71.73 156.91L41.08 174.56L71.73 192.22L102.38 174.56Z" id="a8MEFrhe8"></path><path d="M141.54 79.43L141.54 114.73L172.18 132.39L172.18 97.08L141.54 79.43Z" id="a6f5RjKlF"></path><path d="M107.48 59.81L107.48 95.12L138.13 112.77L138.13 77.46L107.48 59.81Z" id="bJXhSAYiF"></path><path d="M141.54 118.66L141.54 153.97L172.18 171.62L172.18 136.31L141.54 118.66Z" id="eFEae1wbY"></path><path d="M70.02 79.43L70.03 114.73L39.38 132.39L39.38 97.08L70.02 79.43Z" id="e9oDagmnrs"></path><path d="M104.08 59.81L104.08 95.12L73.43 112.77L73.43 77.46L104.08 59.81Z" id="cT5BlMm"></path><path d="M70.02 118.66L70.03 153.97L39.38 171.62L39.38 136.31L70.02 118.66Z" id="gcZzuU0NS"></path><path d="M138.13 118.66L107.48 136.31L107.48 171.62L138.13 153.97L138.13 118.66Z" id="a72ucuEVLt"></path><path d="M104.08 171.62L104.08 136.31L73.43 118.66L73.43 153.97L104.08 171.62Z" id="fgamz9qOC"></path><path d="M75.13 115.71L105.78 133.37L136.43 115.71L105.78 98.06L75.13 115.71Z" id="bQt0ywmy"></path><path d="M326.61 190.83L316.32 165.64L268.73 165.64L258.44 190.83L233.19 190.83L281.43 77.73L304.26 77.73L352.5 190.83L326.61 190.83ZM307.47 143.82L292.52 107.41L277.57 143.82L307.47 143.82Z" id="a5rQmMeUqS"></path><path d="M401.78 103.39L403.71 103.57L405.61 103.82L407.49 104.14L409.33 104.52L411.14 104.97L412.91 105.49L414.65 106.07L416.35 106.71L418.01 107.41L419.63 108.17L421.22 108.99L422.76 109.86L424.26 110.79L425.71 111.77L427.12 112.8L428.49 113.88L429.8 115.01L431.07 116.19L432.28 117.42L433.45 118.69L434.56 120L435.62 121.36L436.63 122.76L437.58 124.2L438.47 125.67L439.3 127.18L440.07 128.73L440.78 130.31L441.43 131.92L442.02 133.57L442.54 135.24L443 136.94L443.39 138.67L443.71 140.43L443.96 142.21L444.14 144.01L444.25 145.83L444.29 147.68L444.29 148L444.25 149.84L444.14 151.66L443.96 153.47L443.71 155.25L443.38 157.01L442.99 158.75L442.53 160.46L442 162.14L441.41 163.79L440.76 165.41L440.04 167L439.26 168.56L438.42 170.08L437.52 171.57L436.57 173.01L435.55 174.42L434.49 175.79L433.37 177.12L432.19 178.4L430.97 179.64L429.69 180.83L428.37 181.97L426.99 183.07L425.57 184.11L424.11 185.1L422.6 186.04L421.05 186.93L419.45 187.75L417.82 188.52L416.14 189.23L414.43 189.88L412.68 190.47L410.9 190.99L409.08 191.45L407.22 191.84L405.34 192.17L403.42 192.42L401.48 192.6L399.5 192.71L397.5 192.75L395.52 192.72L393.55 192.61L391.62 192.43L389.72 192.18L387.85 191.86L386 191.47L384.2 191.02L382.42 190.5L380.69 189.92L378.99 189.28L377.32 188.58L375.7 187.82L374.12 187.01L372.57 186.13L371.07 185.21L369.62 184.23L368.21 183.19L366.85 182.11L365.53 180.98L364.26 179.8L363.05 178.57L361.88 177.3L360.77 175.99L359.71 174.63L358.7 173.23L357.76 171.8L356.86 170.32L356.03 168.81L355.26 167.26L354.55 165.68L353.9 164.07L353.31 162.42L352.79 160.75L352.33 159.05L351.94 157.32L351.62 155.56L351.37 153.79L351.19 151.98L351.08 150.16L351.04 148.32L351.04 148L351.08 146.15L351.19 144.33L351.37 142.52L351.62 140.74L351.95 138.98L352.34 137.24L352.8 135.54L353.33 133.85L353.92 132.2L354.57 130.58L355.29 128.99L356.07 127.43L356.91 125.91L357.81 124.43L358.76 122.98L359.77 121.57L360.84 120.2L361.96 118.87L363.14 117.59L364.36 116.35L365.64 115.16L366.96 114.02L368.34 112.92L369.76 111.88L371.22 110.89L372.73 109.95L374.28 109.06L375.88 108.24L377.51 107.47L379.19 106.76L380.9 106.11L382.65 105.52L384.43 105L386.25 104.54L388.11 104.15L389.99 103.83L391.91 103.57L393.85 103.39L395.83 103.28L397.83 103.24L399.82 103.28L401.78 103.39ZM394.69 124.4L393.35 124.59L392.04 124.84L390.78 125.17L389.57 125.56L388.4 126.01L387.27 126.52L386.19 127.1L385.15 127.73L384.16 128.41L383.22 129.15L382.33 129.94L381.49 130.78L380.69 131.66L379.95 132.59L379.26 133.56L378.62 134.57L378.03 135.61L377.49 136.7L377.01 137.81L376.58 138.96L376.21 140.14L375.89 141.34L375.63 142.56L375.42 143.81L375.28 145.08L375.19 146.37L375.16 147.68L375.16 148L375.19 149.3L375.29 150.59L375.45 151.87L375.67 153.12L375.95 154.36L376.29 155.57L376.69 156.76L377.15 157.92L377.66 159.05L378.23 160.15L378.85 161.21L379.52 162.23L380.25 163.22L381.02 164.16L381.85 165.06L382.72 165.92L383.63 166.72L384.6 167.48L385.6 168.18L386.65 168.82L387.74 169.41L388.88 169.93L390.05 170.4L391.25 170.8L392.5 171.13L393.78 171.39L395.1 171.58L396.45 171.7L397.83 171.74L399.25 171.7L400.64 171.58L401.99 171.4L403.29 171.14L404.55 170.82L405.76 170.43L406.94 169.98L408.06 169.47L409.14 168.89L410.18 168.26L411.17 167.58L412.11 166.84L413 166.05L413.84 165.21L414.64 164.33L415.38 163.4L416.08 162.43L416.72 161.42L417.31 160.38L417.84 159.3L418.32 158.18L418.75 157.03L419.13 155.86L419.44 154.65L419.71 153.43L419.91 152.18L420.06 150.91L420.15 149.62L420.18 148.32L420.18 148L420.14 146.69L420.05 145.4L419.89 144.12L419.67 142.87L419.38 141.63L419.04 140.42L418.64 139.23L418.18 138.07L417.67 136.94L417.1 135.85L416.48 134.78L415.81 133.76L415.08 132.77L414.31 131.83L413.49 130.93L412.62 130.07L411.7 129.27L410.74 128.52L409.73 127.81L408.68 127.17L407.59 126.58L406.46 126.06L405.29 125.59L404.08 125.19L402.83 124.86L401.55 124.6L400.24 124.41L398.89 124.29L397.5 124.25L396.08 124.29L394.69 124.4Z" id="birChImra"></path><path d="M502.42 78.65L504.33 78.8L506.2 79L508.03 79.26L509.82 79.57L511.56 79.94L513.26 80.37L514.92 80.84L516.53 81.37L518.1 81.95L519.62 82.58L521.1 83.26L522.52 83.99L523.91 84.77L525.24 85.59L526.53 86.46L527.76 87.38L528.95 88.34L530.09 89.34L531.17 90.39L532.21 91.48L533.2 92.61L534.13 93.78L535.01 94.99L535.84 96.24L536.61 97.53L537.33 98.85L538 100.21L538.61 101.61L539.16 103.04L539.66 104.51L540.1 106.01L540.49 107.54L540.81 109.1L541.08 110.69L541.29 112.32L541.44 113.97L541.53 115.65L541.56 117.35L541.56 117.68L541.53 119.6L541.41 121.48L541.23 123.31L540.97 125.1L540.64 126.83L540.25 128.52L539.78 130.16L539.25 131.76L538.66 133.31L538 134.8L537.28 136.26L536.51 137.66L535.67 139.01L534.77 140.32L533.82 141.58L532.82 142.79L531.76 143.95L530.65 145.07L529.49 146.13L528.28 147.15L527.02 148.12L525.72 149.04L524.37 149.91L522.98 150.73L521.55 151.5L520.08 152.23L518.57 152.9L517.02 153.52L515.44 154.1L513.82 154.63L512.17 155.1L510.49 155.53L508.77 155.9L507.03 156.23L505.26 156.51L503.47 156.73L501.65 156.91L499.81 157.04L497.94 157.11L496.06 157.14L477.25 157.14L477.25 190.83L452.49 190.83L452.49 78.53L498.47 78.53L500.46 78.56L502.42 78.65ZM477.25 135.16L496.86 135.16L498.34 134.59L499.77 134.01L501.13 133.43L502.44 132.84L503.68 132.24L504.87 131.64L506 131.02L507.08 130.41L508.09 129.78L509.05 129.15L509.95 128.52L510.79 127.87L511.57 127.22L512.3 126.56L512.97 125.9L513.58 125.23L514.13 124.55L514.62 123.87L515.06 123.18L515.43 122.48L515.75 121.78L516.01 121.07L516.22 120.35L516.36 119.62L516.45 118.89L516.48 118.16L516.48 117.84L516.44 116.58L516.34 115.37L516.17 114.21L515.94 113.1L515.64 112.03L515.28 111L514.86 110.03L514.38 109.1L513.83 108.22L513.23 107.39L512.57 106.61L511.85 105.87L511.07 105.18L510.24 104.55L509.36 103.96L508.42 103.42L507.43 102.93L506.4 102.5L505.31 102.11L504.17 101.77L502.98 101.49L501.75 101.25L500.48 101.07L499.15 100.94L497.79 100.86L496.38 100.83L477.25 100.83L477.25 135.16Z" id="dqfEwAbzC"></path><path d="M557.96 156.98C568.09 165.32 578.7 170.62 591.56 170.62C601.69 170.62 607.8 166.6 607.8 160.03C607.8 159.99 607.8 159.74 607.8 159.71C607.8 153.45 603.94 150.24 585.13 145.43C562.46 139.66 547.83 133.4 547.83 111.1C547.83 111.07 547.83 110.81 547.83 110.78C547.83 90.41 564.22 76.93 587.22 76.93C603.62 76.93 617.61 82.07 629.02 91.21C627.74 93.07 617.44 107.96 616.16 109.82C606.19 102.92 596.38 98.75 586.9 98.75C577.41 98.75 572.43 103.08 572.43 108.54C572.43 108.57 572.43 108.83 572.43 108.86C572.43 116.24 577.25 118.64 596.7 123.61C619.53 129.55 632.4 137.73 632.4 157.3C632.4 157.34 632.4 157.59 632.4 157.62C632.4 179.92 615.36 192.43 591.08 192.43C574.04 192.43 556.83 186.5 543.33 174.46C546.25 170.97 556.49 158.73 557.96 156.98Z" id="b1r4HEjjn"></path></defs><g><g><use xlink:href="#b12xVwHQlq" opacity="1" fill="#008445" fill-opacity="1"></use><g><use xlink:href="#b12xVwHQlq" opacity="1" fill-opacity="0" stroke="#000000" stroke-width="1" stroke-opacity="0"></use></g></g><g><use xlink:href="#dJwSK1R69" opacity="1" fill="#008445" fill-opacity="1"></use><g><use xlink:href="#dJwSK1R69" opacity="1" fill-opacity="0" stroke="#000000" stroke-width="1" stroke-opacity="0"></use></g></g><g><use xlink:href="#b5tkUBiP6" opacity="1" fill="#008445" fill-opacity="1"></use><g><use xlink:href="#b5tkUBiP6" opacity="1" fill-opacity="0" stroke="#000000" stroke-width="1" stroke-opacity="0"></use></g></g><g><use xlink:href="#a1R8or5oQG" opacity="1" fill="#008445" fill-opacity="1"></use><g><use xlink:href="#a1R8or5oQG" opacity="1" fill-opacity="0" stroke="#000000" stroke-width="1" stroke-opacity="0"></use></g></g><g><use xlink:href="#f74Rxrrph9" opacity="1" fill="#008445" fill-opacity="1"></use><g><use xlink:href="#f74Rxrrph9" opacity="1" fill-opacity="0" stroke="#000000" stroke-width="1" stroke-opacity="0"></use></g></g><g><use xlink:href="#cH7sMwaCQ" opacity="1" fill="#c3dd89" fill-opacity="1"></use><g><use xlink:href="#cH7sMwaCQ" opacity="1" fill-opacity="0" stroke="#000000" stroke-width="1" stroke-opacity="0"></use></g></g><g><use xlink:href="#aLslut52r" opacity="1" fill="#c3dd89" fill-opacity="1"></use><g><use xlink:href="#aLslut52r" opacity="1" fill-opacity="0" stroke="#000000" stroke-width="1" stroke-opacity="0"></use></g></g><g><use xlink:href="#bkvaI5fto" opacity="1" fill="#c3dd89" fill-opacity="1"></use><g><use xlink:href="#bkvaI5fto" opacity="1" fill-opacity="0" stroke="#000000" stroke-width="1" stroke-opacity="0"></use></g></g><g><use xlink:href="#dsZr7srwG" opacity="1" fill="#c3dd89" fill-opacity="1"></use><g><use xlink:href="#dsZr7srwG" opacity="1" fill-opacity="0" stroke="#000000" stroke-width="1" stroke-opacity="0"></use></g></g><g><use xlink:href="#b2iDSt1F2Y" opacity="1" fill="#c3dd89" fill-opacity="1"></use><g><use xlink:href="#b2iDSt1F2Y" opacity="1" fill-opacity="0" stroke="#000000" stroke-width="1" stroke-opacity="0"></use></g></g><g><use xlink:href="#aI6ZgqckZ" opacity="1" fill="#1f3e7c" fill-opacity="1"></use><g><use xlink:href="#aI6ZgqckZ" opacity="1" fill-opacity="0" stroke="#000000" stroke-width="1" stroke-opacity="0"></use></g></g><g><use xlink:href="#d1XJRrfyh" opacity="1" fill="#1f3e7c" fill-opacity="1"></use><g><use xlink:href="#d1XJRrfyh" opacity="1" fill-opacity="0" stroke="#000000" stroke-width="1" stroke-opacity="0"></use></g></g><g><use xlink:href="#cDFcfpmO6" opacity="1" fill="#1f3e7c" fill-opacity="1"></use><g><use xlink:href="#cDFcfpmO6" opacity="1" fill-opacity="0" stroke="#000000" stroke-width="1" stroke-opacity="0"></use></g></g><g><use xlink:href="#f3lNU0JUly" opacity="1" fill="#1f3e7c" fill-opacity="1"></use><g><use xlink:href="#f3lNU0JUly" opacity="1" fill-opacity="0" stroke="#000000" stroke-width="1" stroke-opacity="0"></use></g></g><g><use xlink:href="#aGHtm9xFa" opacity="1" fill="#1f3e7c" fill-opacity="1"></use><g><use xlink:href="#aGHtm9xFa" opacity="1" fill-opacity="0" stroke="#000000" stroke-width="1" stroke-opacity="0"></use></g></g><g><use xlink:href="#g1Z1mH25MS" opacity="1" fill="#008445" fill-opacity="1"></use><g><use xlink:href="#g1Z1mH25MS" opacity="1" fill-opacity="0" stroke="#000000" stroke-width="1" stroke-opacity="0"></use></g></g><g><use xlink:href="#b4KfO5uiuq" opacity="1" fill="#008445" fill-opacity="1"></use><g><use xlink:href="#b4KfO5uiuq" opacity="1" fill-opacity="0" stroke="#000000" stroke-width="1" stroke-opacity="0"></use></g></g><g><use xlink:href="#a8MEFrhe8" opacity="1" fill="#008445" fill-opacity="1"></use><g><use xlink:href="#a8MEFrhe8" opacity="1" fill-opacity="0" stroke="#000000" stroke-width="1" stroke-opacity="0"></use></g></g><g><use xlink:href="#a6f5RjKlF" opacity="1" fill="#c3dd89" fill-opacity="1"></use><g><use xlink:href="#a6f5RjKlF" opacity="1" fill-opacity="0" stroke="#000000" stroke-width="1" stroke-opacity="0"></use></g></g><g><use xlink:href="#bJXhSAYiF" opacity="1" fill="#c3dd89" fill-opacity="1"></use><g><use xlink:href="#bJXhSAYiF" opacity="1" fill-opacity="0" stroke="#000000" stroke-width="1" stroke-opacity="0"></use></g></g><g><use xlink:href="#eFEae1wbY" opacity="1" fill="#c3dd89" fill-opacity="1"></use><g><use xlink:href="#eFEae1wbY" opacity="1" fill-opacity="0" stroke="#000000" stroke-width="1" stroke-opacity="0"></use></g></g><g><use xlink:href="#e9oDagmnrs" opacity="1" fill="#1f3e7c" fill-opacity="1"></use><g><use xlink:href="#e9oDagmnrs" opacity="1" fill-opacity="0" stroke="#000000" stroke-width="1" stroke-opacity="0"></use></g></g><g><use xlink:href="#cT5BlMm" opacity="1" fill="#1f3e7c" fill-opacity="1"></use><g><use xlink:href="#cT5BlMm" opacity="1" fill-opacity="0" stroke="#000000" stroke-width="1" stroke-opacity="0"></use></g></g><g><use xlink:href="#gcZzuU0NS" opacity="1" fill="#1f3e7c" fill-opacity="1"></use><g><use xlink:href="#gcZzuU0NS" opacity="1" fill-opacity="0" stroke="#000000" stroke-width="1" stroke-opacity="0"></use></g></g><g><use xlink:href="#a72ucuEVLt" opacity="1" fill="#1f3e7c" fill-opacity="1"></use><g><use xlink:href="#a72ucuEVLt" opacity="1" fill-opacity="0" stroke="#000000" stroke-width="1" stroke-opacity="0"></use></g></g><g><use xlink:href="#fgamz9qOC" opacity="1" fill="#c3dd89" fill-opacity="1"></use><g><use xlink:href="#fgamz9qOC" opacity="1" fill-opacity="0" stroke="#000000" stroke-width="1" stroke-opacity="0"></use></g></g><g><use xlink:href="#bQt0ywmy" opacity="1" fill="#008445" fill-opacity="1"></use><g><use xlink:href="#bQt0ywmy" opacity="1" fill-opacity="0" stroke="#000000" stroke-width="1" stroke-opacity="0"></use></g></g><g><use xlink:href="#a5rQmMeUqS" opacity="1" fill="#1f3e7c" fill-opacity="1"></use><g><use xlink:href="#a5rQmMeUqS" opacity="1" fill-opacity="0" stroke="#000000" stroke-width="1" stroke-opacity="0"></use></g></g><g><use xlink:href="#birChImra" opacity="1" fill="#1f3e7c" fill-opacity="1"></use><g><use xlink:href="#birChImra" opacity="1" fill-opacity="0" stroke="#000000" stroke-width="1" stroke-opacity="0"></use></g></g><g><use xlink:href="#dqfEwAbzC" opacity="1" fill="#1f3e7c" fill-opacity="1"></use><g><use xlink:href="#dqfEwAbzC" opacity="1" fill-opacity="0" stroke="#000000" stroke-width="1" stroke-opacity="0"></use></g></g><g><use xlink:href="#b1r4HEjjn" opacity="1" fill="#1f3e7c" fill-opacity="1"></use><g><use xlink:href="#b1r4HEjjn" opacity="1" fill-opacity="0" stroke="#000000" stroke-width="1" stroke-opacity="0"></use></g></g></g></svg>